<svg width="96" height="96" xmlns="http://www.w3.org/2000/svg" xmlns:xlink="http://www.w3.org/1999/xlink" overflow="hidden"><defs><clipPath id="clip0"><rect x="592" y="372" width="96" height="96"/></clipPath></defs><g clip-path="url(#clip0)" transform="translate(-592 -372)"><path d="M669.4 396.2 661 384 661 380.4C661 379.5 659.9 379.1 659.3 379.7L645.5 392.6C643.9 394.1 643 396.2 643 398.4L643 399C643 407.5 620 411 620 438 620 441.6 620.2 444.7 620.7 447.3 620.5 447.1 620.3 446.9 620 446.7 617.7 444.5 615 439.6 615 429 615 425.3 616.8 421.5 618.6 417.9 621.4 412.1 624.6 405.5 619.1 399.9 617.9 398.7 616 398.7 614.9 399.9 613.7 401.1 613.7 403 614.9 404.1 617.2 406.4 616.2 409.1 613.3 415.2 611.2 419.3 609 424 609 429 609 439.3 611.4 446.8 616 451.2 618.4 453.5 621 454.4 622.8 454.8 624.7 458.8 627 460 628 460L640 460C641.7 460 643 458.7 643 457 643 455.5 641.9 454.2 640.4 454L637 454C640.8 451.9 644 447.6 644 440 644 433.4 642.7 430.7 638.3 428.3 637.6 427.9 637.3 427 637.7 426.3 638.1 425.6 639 425.3 639.7 425.7 645.8 428.9 647 433.4 647 440 647 443.6 646.3 446.8 645 449.5L645 457C645 458.7 646.3 460 648 460 649.7 460 651 458.7 651 457L651 447.8C651.7 447 652.4 446.1 653 445.1L653 457C653 458.7 654.3 460 656 460 657.7 460 659 458.7 659 457L659 430.4C659.7 427.4 660 424.8 660 423 660 415.1 658 414.3 658 410 658 407.8 659.8 406 662 406 666.4 406 670 402.4 670 398 670 397.3 669.8 396.7 669.4 396.2Z"/></g></svg>